<?xml version="1.0" standalone="no"?>
<!DOCTYPE svg PUBLIC "-//W3C//DTD SVG 20010904//EN"
 "http://www.w3.org/TR/2001/REC-SVG-20010904/DTD/svg10.dtd">
<svg version="1.0" xmlns="http://www.w3.org/2000/svg"
 width="512.000000pt" height="512.000000pt" viewBox="0 0 512.000000 512.000000"
 preserveAspectRatio="xMidYMid meet">
<metadata>
Created by potrace 1.14, written by Peter Selinger 2001-2017
</metadata>
<g transform="translate(0.000000,512.000000) scale(0.100000,-0.100000)"
fill="#000000" stroke="none">
<path d="M860 5110 c-98 -31 -174 -113 -195 -210 -4 -19 -8 -1080 -8 -2356 l0
-2321 25 -54 c30 -66 72 -109 135 -140 l48 -24 1679 -3 c1865 -3 1731 -7 1815
64 23 20 46 44 51 54 10 19 -33 19 -1619 19 -1509 0 -1632 2 -1673 17 -60 24
-114 68 -143 117 -24 42 -48 127 -39 137 3 3 749 5 1657 6 1636 1 1652 1 1697
21 85 38 148 111 165 193 10 45 10 4225 0 4270 -19 88 -88 168 -173 200 -51
19 -85 20 -1724 19 -920 0 -1684 -4 -1698 -9z m2575 -1105 c30 -29 32 -54 6
-86 -10 -13 -139 -143 -285 -289 -146 -146 -266 -269 -266 -273 0 -5 20 -28
45 -52 l44 -44 285 284 c156 157 292 286 302 286 36 2 49 -2 67 -23 38 -45 32
-54 -268 -354 -157 -157 -285 -288 -285 -290 0 -3 21 -26 47 -50 l46 -45 283
283 c156 155 291 285 301 289 26 9 51 0 68 -24 35 -50 29 -57 -271 -357 l-285
-287 46 -48 47 -48 287 287 c243 242 291 286 316 286 39 0 65 -26 65 -65 0
-28 -33 -65 -303 -334 -200 -200 -328 -320 -375 -352 -146 -98 -298 -113 -437
-44 l-50 24 -71 -70 -71 -71 -87 85 c-47 47 -86 89 -86 94 0 4 31 38 68 74
l67 66 -29 64 c-28 58 -30 73 -30 169 0 93 3 112 27 164 15 32 43 81 64 110
43 61 619 644 648 656 32 14 44 11 70 -15z m-1835 -176 c223 -40 454 -235 549
-464 54 -131 65 -277 28 -380 l-15 -41 693 -693 c634 -634 693 -696 699 -732
18 -110 -98 -187 -188 -125 -16 11 -333 324 -705 696 l-676 677 -40 -15 c-27
-11 -76 -16 -155 -16 -102 0 -123 3 -190 28 -76 29 -86 34 -175 92 -141 90
-284 287 -319 439 -29 129 -22 242 21 334 51 107 147 179 274 205 68 14 96 13
199 -5z m704 -1536 l87 -87 -398 -399 c-237 -238 -412 -405 -432 -414 -96 -42
-193 48 -166 155 4 17 154 174 408 429 221 222 405 403 408 403 4 0 45 -39 93
-87z"/>
</g>
</svg>
